<?xml version="1.0" standalone="no"?>
<!DOCTYPE svg PUBLIC "-//W3C//DTD SVG 20010904//EN"
 "http://www.w3.org/TR/2001/REC-SVG-20010904/DTD/svg10.dtd">
<svg version="1.0" xmlns="http://www.w3.org/2000/svg"
 width="500.000000pt" height="500.000000pt" viewBox="0 0 500.000000 500.000000"
 preserveAspectRatio="xMidYMid meet">
<metadata>
Created by potrace 1.14, written by Peter Selinger 2001-2017
</metadata>
<g transform="translate(0.000000,500.000000) scale(0.100000,-0.100000)"
fill="#000000" stroke="none">
<path d="M2295 3358 c-70 -15 -125 -88 -125 -165 0 -53 46 -142 115 -223 60
-70 193 -190 211 -190 7 0 49 33 95 73 89 78 188 198 213 259 25 59 21 127
-10 175 -35 53 -74 75 -133 75 -72 0 -118 -29 -154 -97 -9 -16 -16 -24 -17
-16 0 20 -47 78 -73 92 -36 20 -80 26 -122 17z"/>
<path d="M1201 2336 c-33 -18 -50 -53 -51 -104 0 -49 21 -96 49 -112 41 -21
141 -4 141 25 0 21 -11 23 -38 9 -39 -20 -60 -17 -87 11 -30 30 -34 92 -7 124
19 25 66 30 99 12 29 -15 33 -14 33 7 0 37 -90 55 -139 28z"/>
<path d="M2347 2344 c-4 -4 -7 -59 -7 -121 0 -104 2 -114 18 -111 15 3 17 17
17 117 0 107 -7 136 -28 115z"/>
<path d="M2424 2337 c-2 -7 -3 -60 -2 -118 3 -90 5 -104 21 -107 15 -3 17 8
17 117 0 102 -2 121 -15 121 -9 0 -18 -6 -21 -13z"/>
<path d="M2607 2343 c-4 -3 -7 -55 -7 -115 0 -90 3 -110 16 -115 21 -8 34 14
34 60 l0 37 60 0 60 0 0 -51 c0 -43 3 -50 18 -47 15 3 17 17 17 118 0 96 -3
115 -15 115 -11 0 -16 -13 -18 -47 l-3 -48 -60 0 -59 0 0 34 c0 56 -20 83 -43
59z"/>
<path d="M3415 2340 c-9 -15 4 -30 26 -30 12 0 19 7 19 20 0 21 -33 29 -45 10z"/>
<path d="M3817 2344 c-4 -4 -7 -58 -7 -121 0 -107 1 -113 20 -113 20 0 21 5
18 117 -3 108 -11 137 -31 117z"/>
<path d="M3522 2318 c-7 -7 -12 -20 -12 -30 0 -10 -7 -18 -15 -18 -8 0 -15 -5
-15 -10 0 -6 7 -13 15 -16 10 -4 15 -20 15 -48 0 -54 22 -86 61 -86 19 0 29 5
29 15 0 8 -9 15 -20 15 -17 0 -20 7 -20 49 0 40 3 50 20 54 11 3 20 10 20 16
0 6 -9 11 -20 11 -13 0 -20 7 -20 19 0 26 -23 44 -38 29z"/>
<path d="M1403 2270 c-13 -5 -23 -17 -23 -26 0 -11 5 -14 16 -10 46 18 63 17
73 -2 9 -18 6 -20 -31 -26 -48 -8 -68 -21 -68 -46 0 -38 77 -69 96 -39 5 8 9
7 14 -1 4 -7 15 -10 24 -7 31 12 17 136 -18 159 -15 10 -56 9 -83 -2z m66
-111 c-6 -13 -18 -19 -32 -17 -30 4 -28 31 3 38 34 9 42 3 29 -21z"/>
<path d="M1567 2273 c-4 -3 -7 -42 -7 -85 0 -71 2 -78 20 -78 18 0 20 7 20 54
0 55 9 71 45 78 24 4 27 31 4 36 -9 2 -23 -4 -32 -12 -13 -14 -16 -14 -21 -1
-6 16 -18 19 -29 8z"/>
<path d="M1724 2268 c-47 -22 -57 -95 -19 -133 36 -37 125 -32 125 8 0 4 -20
5 -44 2 -38 -6 -46 -4 -55 14 -11 20 -9 21 39 21 36 0 52 4 56 15 10 26 -5 61
-31 73 -31 14 -43 14 -71 0z m66 -38 c10 -18 8 -20 -30 -20 -38 0 -40 2 -30
20 6 11 19 20 30 20 11 0 24 -9 30 -20z"/>
<path d="M1856 2271 c-9 -14 55 -161 70 -161 15 0 24 12 46 65 l16 40 22 -52
c22 -52 41 -65 57 -40 26 41 62 142 53 151 -14 14 -27 -2 -49 -60 l-19 -49
-26 58 c-15 35 -31 57 -38 55 -7 -3 -22 -29 -34 -59 l-22 -54 -25 58 c-25 54
-39 68 -51 48z"/>
<path d="M2175 2255 c-52 -51 -18 -145 51 -145 39 0 74 15 74 31 0 7 -14 8
-40 4 -27 -5 -46 -3 -55 5 -25 21 -17 30 24 30 53 0 71 8 71 32 0 27 -45 68
-75 68 -14 0 -37 -11 -50 -25z m83 -27 c3 -15 -4 -18 -32 -18 -38 0 -44 8 -24
28 17 17 52 11 56 -10z"/>
<path d="M2875 2255 c-52 -51 -18 -145 51 -145 49 0 70 14 83 53 29 87 -71
156 -134 92z m79 -18 c22 -16 18 -75 -6 -91 -42 -26 -79 52 -43 88 20 19 26
20 49 3z"/>
<path d="M3073 2268 c-48 -23 -33 -72 28 -88 55 -15 46 -36 -15 -33 -25 2 -46
-1 -46 -5 0 -35 95 -45 123 -14 33 36 16 67 -42 78 -38 8 -46 18 -26 34 12 10
21 10 41 1 32 -14 34 -14 34 4 0 30 -55 43 -97 23z"/>
<path d="M3216 2264 c-9 -24 -7 -187 3 -203 15 -23 41 -5 41 28 0 28 1 29 39
24 31 -4 42 -1 60 18 30 33 29 92 -4 124 -27 28 -46 31 -78 14 -16 -9 -22 -9
-25 0 -5 16 -29 13 -36 -5z m109 -30 c36 -36 -1 -114 -42 -88 -25 16 -29 75
-7 91 23 17 29 16 49 -3z"/>
<path d="M3427 2274 c-4 -4 -7 -43 -7 -86 0 -70 2 -79 18 -76 14 3 17 15 17
82 0 73 -9 99 -28 80z"/>
<path d="M3653 2270 c-13 -5 -23 -17 -23 -26 0 -11 5 -14 16 -10 46 18 63 17
73 -2 9 -18 6 -20 -31 -26 -48 -8 -68 -21 -68 -46 0 -38 77 -69 96 -39 5 8 9
7 14 -1 4 -7 15 -10 24 -7 31 12 17 136 -18 159 -15 10 -56 9 -83 -2z m66
-111 c-6 -13 -18 -19 -32 -17 -30 4 -28 31 3 38 34 9 42 3 29 -21z"/>
<path d="M2610 1967 c-32 -16 -41 -88 -14 -118 17 -19 59 -25 80 -11 34 22 41
96 11 120 -23 18 -52 22 -77 9z m70 -26 c16 -30 12 -66 -9 -85 -38 -34 -90 8
-76 62 4 15 12 30 18 34 22 14 56 8 67 -11z"/>
<path d="M1404 1936 c17 -23 26 -47 26 -70 0 -20 5 -36 10 -36 6 0 10 16 10
36 0 24 8 46 25 66 14 17 23 33 20 36 -3 4 -17 -7 -30 -23 l-25 -30 -21 28
c-11 15 -25 27 -31 27 -6 0 1 -15 16 -34z"/>
<path d="M1883 1900 c0 -49 2 -63 6 -40 6 33 9 35 49 38 l42 3 0 -36 c0 -22 4
-34 10 -30 6 3 10 35 10 71 0 36 -4 64 -10 64 -5 0 -10 -13 -10 -30 0 -29 -2
-30 -44 -30 -43 0 -45 1 -49 33 -2 17 -4 -2 -4 -43z"/>
<path d="M2253 1900 c0 -41 2 -58 4 -37 2 20 2 54 0 75 -2 20 -4 3 -4 -38z"/>
<path d="M2360 1900 c0 -76 17 -97 22 -27 2 34 7 42 23 42 16 0 21 -8 23 -42
4 -54 22 -57 22 -4 0 43 -19 66 -50 58 -16 -4 -20 0 -20 19 0 13 -4 24 -10 24
-6 0 -10 -30 -10 -70z"/>
<path d="M2981 1898 c1 -48 4 -63 8 -43 5 24 12 31 36 33 41 5 57 20 53 51 -3
23 -8 26 -50 29 l-48 3 1 -73z m78 49 c16 -20 -9 -50 -40 -45 -18 2 -25 10
-27 31 -3 24 0 27 26 27 16 0 35 -6 41 -13z"/>
<path d="M3180 1959 c0 -5 5 -7 10 -4 6 3 10 8 10 11 0 2 -4 4 -10 4 -5 0 -10
-5 -10 -11z"/>
<path d="M3415 1960 c3 -5 8 -10 11 -10 2 0 4 5 4 10 0 6 -5 10 -11 10 -5 0
-7 -4 -4 -10z"/>
<path d="M2300 1947 c0 -9 -6 -17 -12 -17 -10 0 -10 -2 -1 -8 6 -4 13 -25 15
-47 3 -34 7 -40 28 -43 22 -2 23 -1 8 8 -19 11 -26 75 -9 82 4 2 0 12 -10 22
-17 17 -19 18 -19 3z"/>
<path d="M3471 1948 c0 -10 -6 -18 -12 -18 -8 0 -8 -4 -1 -13 6 -6 12 -28 14
-47 2 -26 8 -36 23 -38 18 -2 18 -2 3 8 -11 6 -18 23 -18 40 0 17 7 33 18 39
15 9 15 10 0 11 -9 0 -19 8 -21 18 -4 16 -5 16 -6 0z"/>
<path d="M1518 1905 c-25 -55 34 -101 76 -59 33 32 11 84 -35 84 -22 0 -32 -6
-41 -25z m60 3 c28 -28 -3 -83 -33 -58 -8 7 -15 20 -15 29 0 17 18 41 30 41 3
0 11 -5 18 -12z"/>
<path d="M1630 1893 c0 -51 11 -64 48 -61 32 2 32 3 30 53 -1 42 -2 44 -5 13
-8 -70 -53 -76 -53 -7 0 21 -4 39 -10 39 -5 0 -10 -17 -10 -37z"/>
<path d="M1752 1875 c1 -43 2 -45 5 -13 3 24 12 43 26 53 22 15 22 15 -6 13
-26 -2 -27 -5 -25 -53z"/>
<path d="M2030 1911 c-14 -27 -13 -47 6 -65 18 -18 60 -21 70 -5 4 8 -1 9 -15
4 -22 -7 -51 9 -51 26 0 5 16 9 35 9 22 0 35 5 35 13 0 37 -62 51 -80 18z m60
-6 c11 -13 8 -15 -19 -15 -30 0 -39 9 -24 23 11 11 30 8 43 -8z"/>
<path d="M2140 1921 c0 -5 12 -9 26 -8 15 1 29 -4 31 -10 3 -8 -3 -13 -14 -13
-11 0 -28 -6 -38 -14 -16 -12 -17 -16 -6 -30 8 -9 26 -15 43 -14 28 2 29 4 26
48 -3 43 -5 45 -35 48 -18 2 -33 -1 -33 -7z m60 -50 c0 -5 -7 -14 -15 -21 -18
-15 -42 1 -31 19 8 13 46 15 46 2z"/>
<path d="M2736 1917 c-5 -10 -4 -32 1 -50 8 -28 13 -32 46 -34 l37 -1 0 49 c0
27 -4 49 -10 49 -5 0 -10 -18 -10 -40 0 -22 -4 -41 -10 -41 -31 -5 -35 -1 -41
41 -4 34 -7 41 -13 27z"/>
<path d="M2850 1878 c0 -26 5 -48 10 -48 6 0 10 17 10 38 0 31 5 41 23 49 20
10 20 11 -10 10 -33 0 -33 -1 -33 -49z"/>
<path d="M3111 1875 c1 -49 1 -50 9 -12 8 41 7 39 35 55 18 11 16 12 -12 10
-33 -2 -33 -3 -32 -53z"/>
<path d="M3180 1880 c0 -27 5 -50 10 -50 6 0 10 23 10 50 0 28 -4 50 -10 50
-5 0 -10 -22 -10 -50z"/>
<path d="M3228 1905 c-25 -55 34 -101 76 -59 33 32 11 84 -35 84 -22 0 -32 -6
-41 -25z m60 3 c28 -28 -3 -83 -33 -58 -8 7 -15 20 -15 29 0 17 18 41 30 41 3
0 11 -5 18 -12z"/>
<path d="M3340 1878 c0 -26 5 -48 10 -48 6 0 10 17 10 38 0 31 5 41 23 49 20
10 20 11 -10 10 -33 0 -33 -1 -33 -49z"/>
<path d="M3410 1880 c0 -27 5 -50 10 -50 6 0 10 23 10 50 0 28 -4 50 -10 50
-5 0 -10 -22 -10 -50z"/>
<path d="M3520 1926 c0 -2 9 -25 19 -49 11 -25 17 -56 15 -69 -5 -20 -4 -21 6
-5 6 10 22 42 36 72 27 61 18 76 -10 18 l-18 -38 -19 38 c-17 32 -29 46 -29
33z"/>
<path d="M2480 1829 c0 -11 5 -17 10 -14 6 3 10 13 10 21 0 8 -4 14 -10 14 -5
0 -10 -9 -10 -21z"/>
</g>
</svg>
